<?xml version="1.0" encoding="UTF-8"?>
<svg width="1000" height="500" viewBox="0 0 1000 500" xmlns="http://www.w3.org/2000/svg">
    <!-- Background -->
    <rect width="1000" height="500" fill="#e6f3ff"/>
    
    <!-- Continents (simplified shapes) -->
    <!-- North America -->
    <path d="M50,50 L250,50 L300,150 L200,200 L100,180 Z" fill="#c8e6c9" stroke="#2e7d32" stroke-width="2"/>
    <text x="150" y="120" font-family="Arial" font-size="24" fill="#1b5e20">Canada</text>
    
    <!-- Europe -->
    <path d="M400,100 L500,100 L520,200 L450,220 L380,180 Z" fill="#ffecb3" stroke="#ffa000" stroke-width="2"/>
    <text x="420" y="160" font-family="Arial" font-size="20" fill="#ff6f00">France</text>
    <path d="M450,180 L470,190 L465,200 L455,195 L450,185 Z" fill="#fff9c4" stroke="#fbc02d" stroke-width="2"/>
    <text x="455" y="210" font-family="Arial" font-size="20" fill="#f57f17">Italy</text>
    
    <!-- Asia -->
    <path d="M750,100 L850,100 L900,200 L800,250 L700,200 Z" fill="#ffcdd2" stroke="#c62828" stroke-width="2"/>
    <circle cx="800" cy="180" r="30" fill="#ef9a9a" stroke="#b71c1c" stroke-width="2"/>
    <text x="780" y="185" font-family="Arial" font-size="20" fill="#b71c1c">Japan</text>
    
    <!-- Australia -->
    <rect x="750" y="350" width="100" height="50" fill="#fff59d" stroke="#ffd600" stroke-width="2"/>
    <text x="760" y="380" font-family="Arial" font-size="20" fill="#f57f17">Australia</text>
    
    <!-- Ocean Labels -->
    <text x="300" y="300" font-family="Arial" font-size="24" fill="#0277bd" font-style="italic">Pacific Ocean</text>
    <text x="600" y="250" font-family="Arial" font-size="24" fill="#0277bd" font-style="italic">Atlantic Ocean</text>
    <text x="700" y="450" font-family="Arial" font-size="24" fill="#0277bd" font-style="italic">Indian Ocean</text>
</svg>